<svg xmlns="http://www.w3.org/2000/svg" aria-hidden="true" style="position:absolute;width:0;height:0;overflow:hidden">
  <defs>
    <symbol id="icon-balsck-star" viewBox="0 0 34 32">
      <path d="M15.277 1.031c.579-1.375 2.551-1.375 3.13 0l3.417 8.116c.244.58.796.976 1.43 1.026l8.869.702c1.503.119 2.112 1.972.967 2.941l-6.757 5.718a1.66 1.66 0 0 0-.546 1.66l2.064 8.55c.35 1.449-1.245 2.594-2.532 1.817l-7.593-4.582a1.714 1.714 0 0 0-1.767 0l-7.593 4.582c-1.287.776-2.882-.369-2.532-1.817l2.064-8.55a1.662 1.662 0 0 0-.546-1.66L.595 13.816c-1.145-.969-.536-2.822.967-2.941l8.869-.702a1.692 1.692 0 0 0 1.429-1.026l3.417-8.116z"/>
    </symbol>
    <symbol id="icon-chevrons-right" viewBox="0 0 31 32">
      <path fill="#fff" d="M13.179 10.509 18.715 16l-5.536 5.491 1.802 1.818L22.35 16l-7.369-7.309-1.802 1.818z" style="fill:var(--color1, #fff)"/>
      <path fill="#fff" d="m8.581 8.691-1.802 1.818L12.315 16l-5.536 5.491 1.802 1.818L15.95 16 8.581 8.691z" style="fill:var(--color1, #fff)"/>
    </symbol>
    <symbol id="icon-close-btn" viewBox="0 0 32 32">
      <path d="m21.589 8.459-5.657 5.656-5.656-5.656-1.885 1.885L14.047 16l-5.656 5.656 1.885 1.885 5.656-5.656 5.657 5.656 1.885-1.885L17.818 16l5.656-5.656-1.885-1.885z"/>
    </symbol>
    <symbol id="icon-envelope" viewBox="0 0 31 32">
      <path d="M25.858 5.926H5.171a2.589 2.589 0 0 0-2.586 2.586v15.515a2.589 2.589 0 0 0 2.586 2.586h20.687a2.589 2.589 0 0 0 2.586-2.586V8.512a2.589 2.589 0 0 0-2.586-2.586zm0 2.586v.661l-10.343 8.046L5.172 9.174v-.662h20.687zM5.172 24.027V12.448l9.55 7.428a1.283 1.283 0 0 0 1.588 0l9.55-7.428.003 11.579H5.174z"/>
    </symbol>
    <symbol id="icon-Facebook" viewBox="0 0 31 32">
      <path d="M28.16 16.744c0-7.112-5.731-12.878-12.8-12.878S2.56 9.632 2.56 16.744c0 6.428 4.681 11.756 10.8 12.722v-8.999h-3.25v-3.723h3.25v-2.837c0-3.228 1.911-5.01 4.835-5.01 1.401 0 2.865.252 2.865.252v3.169h-1.614c-1.59 0-2.086.993-2.086 2.011v2.416h3.55l-.567 3.723H17.36v8.999c6.119-.966 10.8-6.294 10.8-12.722z"/>
    </symbol>
    <symbol id="icon-Instagram" viewBox="0 0 31 32">
      <path d="M15.358 6.91c3.078 0 3.442.014 4.652.068 1.125.05 1.732.238 2.137.396.536.207.922.459 1.323.86.405.405.652.788.864 1.323.158.405.346 1.017.396 2.137.054 1.215.068 1.579.068 4.653s-.014 3.442-.068 4.653c-.05 1.125-.238 1.732-.396 2.137a3.558 3.558 0 0 1-.86 1.323 3.62 3.62 0 0 1-1.323.864c-.405.158-1.017.346-2.137.396-1.215.054-1.58.068-4.653.068s-3.442-.014-4.653-.068c-1.125-.05-1.732-.238-2.137-.396a3.558 3.558 0 0 1-1.323-.86 3.617 3.617 0 0 1-.864-1.322c-.158-.405-.346-1.017-.396-2.137-.054-1.215-.068-1.579-.068-4.653s.014-3.442.068-4.653c.05-1.125.238-1.732.396-2.137.207-.536.459-.922.86-1.323a3.62 3.62 0 0 1 1.323-.864c.405-.158 1.017-.346 2.137-.396 1.21-.054 1.575-.068 4.653-.068h.001zm0-2.074c-3.127 0-3.518.014-4.747.068-1.224.054-2.065.252-2.794.536a5.609 5.609 0 0 0-2.042 1.332A5.636 5.636 0 0 0 4.443 8.81c-.284.734-.482 1.57-.536 2.794-.054 1.233-.068 1.624-.068 4.751s.014 3.518.068 4.747c.054 1.224.252 2.065.536 2.794.297.76.688 1.404 1.332 2.042a5.637 5.637 0 0 0 2.038 1.328c.734.284 1.57.482 2.794.536 1.228.054 1.62.068 4.747.068s3.519-.014 4.747-.068c1.224-.054 2.065-.252 2.794-.536.756-.292 1.4-.688 2.038-1.328s1.035-1.282 1.328-2.038c.284-.734.482-1.57.536-2.794.054-1.228.068-1.62.068-4.747s-.014-3.518-.068-4.747c-.054-1.224-.252-2.065-.536-2.794a5.405 5.405 0 0 0-1.318-2.047 5.621 5.621 0 0 0-2.038-1.327c-.734-.284-1.57-.482-2.794-.536-1.233-.058-1.624-.072-4.751-.072l-.001.001z"/>
      <path d="M15.358 10.438a5.918 5.918 0 1 0 5.917 5.917 5.918 5.918 0 0 0-5.917-5.917zm0 9.754a3.839 3.839 0 1 1 .002-7.678 3.839 3.839 0 0 1-.002 7.678zM22.889 10.204a1.38 1.38 0 1 1-2.761 0 1.38 1.38 0 0 1 2.761 0z"/>
    </symbol>
    <symbol id="icon-logo" viewBox="0 0 75 32">
      <path d="M31.857 8.795a5.025 5.025 0 1 0-4.525 5.492 5.026 5.026 0 0 0 4.526-5.492zm-3.746-3.351c.061 0 .107.012.164.028l.012.003c.022.112 0 .164-.059.259a8.48 8.48 0 0 1-.331.486c-.201.282-.403.564-.541.886-.299.697-.23 1.51-.159 2.331.062.719.124 1.444-.06 2.104-.222.794-.778 1.313-1.474 1.7-.039.007-.081.003-.122 0l-.025-.002-.016-.001-.007-.013c-.04-.075-.042-.08-.013-.166.037-.111.111-.225.181-.333.027-.041.053-.081.076-.12.242-.403.479-.839.554-1.31.093-.588.043-1.193-.006-1.797-.063-.767-.125-1.535.102-2.268.28-.9.935-1.37 1.723-1.789zM43.69 23.395a4.899 4.899 0 1 0-9.731 1.138 4.899 4.899 0 0 0 9.731-1.138zm-5.425-3.171c.65-.048 1.258.11 1.782.5.848.631 1.281 1.673 1.424 2.694.152 1.077.137 2.573-.565 3.475-.383.492-.867.691-1.466.765a2.66 2.66 0 0 1-1.8-.482c-.825-.595-1.249-1.573-1.402-2.553-.175-1.116-.169-2.678.555-3.62.385-.501.865-.7 1.472-.778z"/>
      <path d="M15.783.245c.872-.114 1.858-.025 2.706.189.516.13 1.03.307 1.558.381.303.043.621.039.927.045.049.849.213 2.883.115 3.63-.156.03-.276.022-.433 0-.161-.186-.237-.602-.333-.844a3.494 3.494 0 0 0-1.934-1.925c-1.101-.452-2.417-.394-3.502.075-1.14.493-2.069 1.478-2.522 2.633-.701 1.788-.696 4.083.091 5.843.545 1.22 1.515 2.293 2.784 2.769 1.211.455 2.528.32 3.688-.212.518-.264.997-.657 1.305-1.156.174-.282.303-.818.579-1l.077.031c.297.376.408 1.55.506 2.055-1.119.986-2.468 1.639-3.951 1.835-1.941.255-3.967-.137-5.535-1.347-1.428-1.102-2.295-2.833-2.509-4.607-.249-2.062.206-4.142 1.511-5.783C12.113 1.345 13.882.461 15.785.243zM52.235 5.142c-.52-.129-1.148-.199-1.681-.133-1.243.122-2.306.601-3.114 1.576a5.331 5.331 0 0 0-1.182 3.9c.124 1.198.675 2.389 1.63 3.147 1.004.797 2.422 1.021 3.668.874 1.106-.131 2.086-.608 2.772-1.501.314-.408.542-.869.721-1.35a3.924 3.924 0 0 1-.066-.064c-.106-.104-.215-.212-.358-.255a.636.636 0 0 1-.033.014.168.168 0 0 0-.097.08c-.592.871-1.269 1.447-2.328 1.645-.825.154-1.646.012-2.338-.473a3.622 3.622 0 0 1-1.24-1.578c1.266-.751 2.642-1.511 4.099-1.809.288-.059.582-.092.875-.125.308-.035.615-.069.914-.134.2-.043.344-.084.412-.296.17-.533-.099-1.403-.367-1.862-.491-.84-1.352-1.423-2.288-1.655zm-1.288.847c.237.001.49.018.718.081.386.106.735.335.923.696.13.25.232.651.13.924-.086.23-.272.387-.477.508-.256.151-.563.248-.859.342-.101.032-.2.063-.295.096-.517.179-1.026.373-1.519.612-.113.05-.255.14-.407.236-.285.18-.602.38-.817.377-.115-.096-.144-.176-.156-.32-.08-.958.306-2.047.925-2.771.454-.53 1.166-.726 1.834-.78zM61.547 5.05a5.731 5.731 0 0 0-1.111-.042c-1.261.103-2.328.563-3.154 1.545a5.314 5.314 0 0 0-1.211 3.904c.111 1.168.657 2.363 1.577 3.114.991.808 2.469 1.084 3.716.943 1.11-.126 2.107-.647 2.8-1.528.319-.409.569-.867.739-1.357a3.276 3.276 0 0 1-.067-.06c-.115-.105-.251-.229-.396-.241-.594.894-1.305 1.524-2.382 1.741-.812.164-1.6.044-2.297-.418-.598-.397-1.033-.975-1.343-1.616 1.369-.931 3.053-1.645 4.68-1.946.202-.037.407-.053.612-.069.17-.013.339-.026.507-.052.219-.033.44-.083.489-.333.138-.704-.14-1.552-.556-2.118-.627-.854-1.567-1.322-2.603-1.466zm-1.202.973c.424-.034.837-.055 1.246.095.392.143.708.426.879.81.113.252.161.535.055.798a.919.919 0 0 1-.301.378c-.308.225-1.07.491-1.732.722-.327.114-.629.22-.841.308-.34.152-.669.336-.996.52-.182.102-.363.204-.547.3-.154-.938-.057-1.894.453-2.716.422-.679 1.017-1.038 1.783-1.213zM28.907 16.304c1.004-.006 3.825-.131 4.586.07.064.087.058.089.05.198-.176.296-.551.415-.812.628a.946.946 0 0 0-.331.488c-.168.709-.102 1.528-.102 2.256l-.02 3.074c-.005.733.018 1.483-.068 2.212-.123 1.043-.583 2.012-1.426 2.662-1.05.81-2.517.99-3.801.816-1.124-.152-2.221-.639-2.921-1.562-.634-.837-.795-1.815-.66-2.838a3.33 3.33 0 0 1 .146-.528 2.485 2.485 0 0 1 1.339-1.433c.667-.286 1.508-.307 2.178-.018.326.14.531.381.651.715.073.204.097.379.004.577-.27.255-.878-.087-1.256.019a1.28 1.28 0 0 0-.782.658c-.29.549-.297 1.268-.089 1.846.185.515.603.931 1.095 1.159.585.27 1.407.338 2.018.111.473-.176.821-.552 1.012-1.015.165-.398.242-.856.28-1.283.087-.963.196-6.777-.016-7.406-.224-.663-.986-.683-1.161-1.087a.46.46 0 0 1 .049-.251l.038-.067zM49.651 27.076c.428-1.06.798-2.152 1.192-3.225.308-.836.688-1.7.876-2.57a1.13 1.13 0 0 0 .006-.554c-.158-.565-.887-.52-1.052-.956.023-.096.009-.137.101-.196.169-.108 3.144-.119 3.509-.073.121.015.208.043.288.14.008.21-.042.305-.231.412-.303.171-.688.258-.915.539-.357.443-1.702 4.23-2.034 5.091l-1.109 2.878c-.279.723-.541 1.509-.956 2.166-.252.398-.591.783-1.001 1.02-.599.345-1.36.408-2.022.222-.515-.145-.986-.464-1.233-.949a1.746 1.746 0 0 1-.1-1.304c.107-.305.354-.557.648-.689.191-.084.502-.158.699-.051.469.255.163 1.097.343 1.546a.525.525 0 0 0 .303.319c.251.101.686-.037.912-.147.764-.373 1.085-1.573 1.339-2.315-.321.006-.691.045-1.007-.01a.472.472 0 0 1-.155-.047c-.105-.061-.172-.171-.226-.276-.249-.486-.418-1.051-.613-1.563l-1.212-3.191c-.239-.627-.455-1.281-.748-1.884-.218-.45-.51-.909-.959-1.157-.223-.123-.516-.121-.667-.345-.026-.152.001-.245.048-.39.804-.033 4.036-.117 4.63.049a.638.638 0 0 1-.007.382c-.071.176-.412.231-.569.294-.169.068-.316.171-.382.349-.072.197.024.513.081.712.246.872.643 1.734.97 2.583.409 1.06.777 2.16 1.253 3.191zM43.961 1.037c.714-.037 1.391.054 2.014.428.455.273.841.683.956 1.214.063.288.043.593-.125.844-.182.272-.55.484-.873.524-.194.024-.422-.002-.578-.128-.361-.292-.193-.81-.261-1.209a.731.731 0 0 0-.335-.512 1.42 1.42 0 0 0-1.039-.146c-.279.077-.479.274-.608.528-.409.807-.182 1.861.07 2.677.856.021 1.716.004 2.573.003.002.363-.004.721-.032 1.083-.827-.001-1.656-.013-2.483.018-.053.85-.032 1.714-.037 2.566-.008 1.275-.133 2.683.159 3.924.044.115.093.223.153.331.258.469.416.419.875.57.156.051.247.115.315.26a.397.397 0 0 1-.098.269c-.041.026-.057.041-.11.05-.166.032-4.158.014-4.384-.023-.155-.026-.264-.06-.362-.192.064-.377.484-.35.736-.594.289-.279.434-.653.514-1.04.175-.842.107-1.795.104-2.655l-.016-3.479-1.633-.006c-.033-.359-.035-.722-.045-1.083l1.626-.001a4.327 4.327 0 0 1-.194-.75 2.845 2.845 0 0 1 .533-2.123c.614-.809 1.601-1.222 2.585-1.35z"/>
      <path d="M37.204 1.038c.658-.055 1.289-.007 1.88.316.471.258.874.684 1.019 1.212.09.327.099.741-.085 1.038a.86.86 0 0 1-.589.379c-.218.041-.507.04-.69-.106-.346-.277-.114-.81-.191-1.178-.046-.221-.225-.409-.418-.515-.305-.167-.744-.188-1.074-.088a.965.965 0 0 0-.606.518c-.364.743-.088 1.882.162 2.622.82.049 1.658.011 2.48.015.021.367.002.726-.02 1.092-.835-.002-1.67.001-2.505.009a71.137 71.137 0 0 0-.046 3.133c-.003 1.076-.11 2.285.206 3.323.347.76 1.067.888 1.237 1.294-.026.074-.015.087-.089.13-.263.157-4.261.127-4.618.042-.014-.049-.032-.105-.034-.155-.011-.317.489-.45.681-.64.267-.264.4-.753.462-1.117.139-.818.095-1.72.094-2.549l-.007-3.463-1.628-.007c-.025-.361-.024-.721-.023-1.083.519.006 1.039.005 1.558-.002-.08-.265-.165-.53-.206-.804-.111-.745.051-1.482.507-2.088.612-.814 1.565-1.191 2.545-1.329z"/>
    </symbol>
    <symbol id="icon-map" viewBox="0 0 31 32">
      <path d="M15.515 18.855c2.852 0 5.172-2.32 5.172-5.172s-2.32-5.172-5.172-5.172-5.172 2.32-5.172 5.172 2.319 5.172 5.172 5.172zm0-7.757c1.426 0 2.586 1.16 2.586 2.586s-1.16 2.586-2.586 2.586-2.586-1.16-2.586-2.586 1.16-2.586 2.586-2.586z"/>
      <path d="M14.765 28.958a1.292 1.292 0 0 0 1.5 0c.393-.278 9.631-6.948 9.593-15.275 0-5.703-4.64-10.343-10.343-10.343S5.172 7.98 5.172 13.677c-.037 8.333 9.2 15.003 9.594 15.281zm.75-23.032c4.278 0 7.758 3.479 7.758 7.764.027 5.738-5.673 10.89-7.758 12.58-2.083-1.691-7.785-6.845-7.758-12.587 0-4.278 3.479-7.758 7.758-7.758z"/>
    </symbol>
    <symbol id="icon-map-pin" viewBox="0 0 32 32">
      <path fill="#fff" d="M16 22.667 17.333 20v-6.856c2.295-.596 4-2.667 4-5.144 0-2.941-2.392-5.333-5.333-5.333S10.667 5.059 10.667 8c0 2.477 1.705 4.548 4 5.144V20L16 22.667zM13.333 8c0-1.471 1.196-2.667 2.667-2.667S18.667 6.529 18.667 8c0 1.471-1.196 2.667-2.667 2.667S13.333 9.471 13.333 8z" style="fill:var(--color1, #fff)"/>
      <path fill="#fff" d="m21.689 14.084-.711 2.571c3.455.955 5.688 2.791 5.688 4.679 0 2.523-4.38 5.333-10.667 5.333S5.332 23.856 5.332 21.334c0-1.888 2.233-3.724 5.689-4.68l-.711-2.571c-4.716 1.304-7.645 4.081-7.645 7.251 0 4.485 5.857 8 13.333 8s13.333-3.515 13.333-8c0-3.169-2.929-5.947-7.644-7.249z" style="fill:var(--color1, #fff)"/>
    </symbol>
    <symbol id="icon-menu" viewBox="0 0 32 32">
      <path d="M5.333 8h21.333v2.667H5.333V8zm0 6.667h21.333v2.667H5.333v-2.667zm0 6.666h21.333V24H5.333v-2.667z"/>
    </symbol>
    <symbol id="icon-phone" viewBox="0 0 31 32">
      <path d="M22.894 16.648a1.275 1.275 0 0 0-1.409-.281c-.157.065-.299.16-.419.281l-2.061 2.061c-.956-.284-2.738-.931-3.869-2.061s-1.777-2.913-2.061-3.868l2.061-2.061a1.292 1.292 0 0 0 0-1.828L9.964 3.719a1.292 1.292 0 0 0-1.828 0L4.63 7.225a2.586 2.586 0 0 0-.758 1.855c.03 1.841.517 8.236 5.557 13.276s11.435 5.526 13.277 5.557h.036c.683 0 1.328-.269 1.817-.758l3.506-3.506a1.275 1.275 0 0 0 .281-1.409 1.277 1.277 0 0 0-.281-.419l-5.172-5.173zm-.164 8.678c-1.614-.027-7.134-.46-11.472-4.799-4.352-4.352-4.773-9.892-4.799-11.473l2.592-2.592 3.343 3.344-1.672 1.672a1.288 1.288 0 0 0-.352 1.179c.031.149.79 3.674 2.936 5.821s5.672 2.905 5.821 2.936a1.285 1.285 0 0 0 1.179-.35l1.673-1.672 3.343 3.343-2.594 2.592z"/>
    </symbol>
    <symbol id="icon-star" viewBox="0 0 34 32">
      <path stroke-width="1.684" d="M16.053 1.359c.29-.688 1.289-.688 1.579 0l3.416 8.115a2.537 2.537 0 0 0 2.14 1.539l8.868.702a.828.828 0 0 1 .49 1.457l-6.758 5.719a2.506 2.506 0 0 0-.821 2.502l2.066 8.549c.167.694-.609 1.303-1.28.898h-.002l-7.59-4.581a2.555 2.555 0 0 0-2.638 0L7.931 30.84c-.671.405-1.447-.204-1.28-.898l2.066-8.549a2.506 2.506 0 0 0-.821-2.502l-6.758-5.719a.827.827 0 0 1 .49-1.457l8.868-.702a2.54 2.54 0 0 0 2.14-1.539l3.416-8.115z"/>
    </symbol>
    <symbol id="icon-X" viewBox="0 0 31 32">
      <path d="M21.985 6.426h3.533l-7.719 8.675 9.08 11.805h-7.11l-5.569-7.16-6.372 7.16H4.293l8.256-9.279L3.838 6.426h7.29l5.034 6.544 5.822-6.544zm-1.24 18.401h1.958L10.066 8.397H7.965l12.78 16.43z"/>
    </symbol>
    <symbol id="icon-arrow-right"viewBox="0 0 24 25">
  <path d="M9.70697 17.7275L15.414 12.0205L9.70697 6.31348L8.29297 7.72748L12.586 12.0205L8.29297 16.3135L9.70697 17.7275Z" />
</symbol>
  </defs>
</svg>
