<svg xmlns="http://www.w3.org/2000/svg" aria-hidden="true" style="position:absolute;width:0;height:0;overflow:hidden">
  <defs>
    <symbol id="icon-mail" viewBox="0 0 31 32">
      <path d="M25.858 5.926H5.171a2.589 2.589 0 0 0-2.586 2.586v15.515a2.589 2.589 0 0 0 2.586 2.586h20.687a2.589 2.589 0 0 0 2.586-2.586V8.512a2.589 2.589 0 0 0-2.586-2.586zm0 2.586v.661l-10.343 8.046L5.172 9.174v-.662h20.687zM5.172 24.027V12.448l9.55 7.428a1.283 1.283 0 0 0 1.588 0l9.55-7.428.003 11.579H5.174z"/>
    </symbol>
    <symbol id="icon-icon" viewBox="0 0 32 32">
      <path d="M24.135 17.438a1.652 1.652 0 0 0-1.16-.481 1.629 1.629 0 0 0-1.16.481l-2.616 2.616c-1.213-.361-3.476-1.182-4.91-2.616s-2.255-3.697-2.616-4.91l2.616-2.616a1.648 1.648 0 0 0 .356-1.788 1.652 1.652 0 0 0-.356-.532L7.725 1.028A1.648 1.648 0 0 0 5.937.672c-.199.083-.38.204-.532.356l-4.45 4.45a3.28 3.28 0 0 0-.962 2.355c.038 2.337.656 10.453 7.053 16.85s14.513 7.014 16.852 7.053h.046c.866 0 1.685-.341 2.306-.962l4.45-4.45a1.652 1.652 0 0 0 .481-1.16 1.633 1.633 0 0 0-.481-1.16l-6.564-6.566zm-.208 11.015c-2.048-.034-9.055-.584-14.561-6.091C3.842 16.838 3.307 9.807 3.275 7.8l3.29-3.29 4.244 4.244-2.122 2.122a1.645 1.645 0 0 0-.447 1.497c.039.189 1.003 4.664 3.727 7.388s7.199 3.687 7.388 3.727a1.626 1.626 0 0 0 1.496-.445l2.124-2.122 4.244 4.244-3.292 3.29z"/>
    </symbol>
    <symbol id="icon-map" viewBox="0 0 31 32">
      <path d="M15.515 18.855c2.852 0 5.172-2.32 5.172-5.172s-2.32-5.172-5.172-5.172-5.172 2.32-5.172 5.172 2.319 5.172 5.172 5.172zm0-7.757c1.426 0 2.586 1.16 2.586 2.586s-1.16 2.586-2.586 2.586-2.586-1.16-2.586-2.586 1.16-2.586 2.586-2.586z"/>
      <path d="M14.765 28.958a1.292 1.292 0 0 0 1.5 0c.393-.278 9.631-6.948 9.593-15.275 0-5.703-4.64-10.343-10.343-10.343S5.172 7.98 5.172 13.677c-.037 8.333 9.2 15.003 9.594 15.281zm.75-23.032c4.278 0 7.758 3.479 7.758 7.764.027 5.738-5.673 10.89-7.758 12.58-2.083-1.691-7.785-6.845-7.758-12.587 0-4.278 3.479-7.758 7.758-7.758z"/>
    </symbol>
  </defs>
</svg>
